<?xml version="1.0" encoding="UTF-8"?>
<svg width="240px" height="250px" viewBox="0 0 240 250" version="1.1" xmlns="http://www.w3.org/2000/svg" xmlns:xlink="http://www.w3.org/1999/xlink">
    <title>Logo-deco</title>
    <g id="Website-1.0主頁(done)" stroke="none" stroke-width="1" fill="none" fill-rule="evenodd">
        <g id="Page/1.0主頁/mobile/animation/9" transform="translate(-40.000000, -186.000000)">
            <g id="Logo-deco" transform="translate(40.000000, 186.000000)">
                <polygon id="Polygon" fill="#FFDA94" points="29.3423272 116.964587 34.1537429 120.600113 32.3159456 126.482518 26.3687087 126.482518 24.5309114 120.600113"></polygon>
                <polygon id="Polygon-Copy-57" fill="#FFDA94" points="77.5042159 173.220911 82.3156316 176.856437 80.4778343 182.738842 74.5305974 182.738842 72.6928001 176.856437"></polygon>
                <polygon id="Polygon-Copy-47" fill="#D8D8D8" points="53.6256324 182.934233 58.4370481 186.569759 56.5992509 192.452164 50.6520139 192.452164 48.8142166 186.569759"></polygon>
                <polygon id="Polygon-Copy-12" fill="#F6D644" transform="translate(203.777403, 49.376054) scale(-1, 1) translate(-203.777403, -49.376054) " points="203.777403 42.4957841 210.128472 47.2499337 207.702579 54.9423092 199.852227 54.9423092 197.426334 47.2499337"></polygon>
                <polygon id="Polygon-Copy-60" fill="#F6D644" transform="translate(219.561551, 183.743676) scale(-1, 1) translate(-219.561551, -183.743676) " points="219.561551 178.887015 223.988054 182.242885 222.29728 187.672798 216.825822 187.672798 215.135049 182.242885"></polygon>
                <polygon id="Polygon-Copy-42" fill="#FFDA94" transform="translate(54.839798, 33.187184) scale(-1, 1) translate(-54.839798, -33.187184) " points="54.8397976 26.306914 61.1908664 31.0610635 58.764974 38.753439 50.9146212 38.753439 48.4887288 31.0610635"></polygon>
                <polygon id="Polygon-Copy-25" fill="#FEB534" transform="translate(143.069140, 56.661046) scale(-1, 1) translate(-143.069140, -56.661046) " points="143.06914 49.7807757 149.420209 54.5349252 146.994316 62.2273007 139.143964 62.2273007 136.718071 54.5349252"></polygon>
                <polygon id="Polygon-Copy-13" fill="#FFDA94" transform="translate(217.335582, 198.953717) scale(-1, 1) translate(-217.335582, -198.953717) " points="217.335582 193.894695 222.339454 197.390393 220.428145 203.046552 214.243019 203.046552 212.331709 197.390393"></polygon>
                <polygon id="Polygon-Copy-49" fill="#F6D644" transform="translate(91.467116, 190.826307) scale(-1, 1) translate(-91.467116, -190.826307) " points="91.4671164 185.767285 96.4709888 189.262983 94.5596796 194.919142 88.3745531 194.919142 86.463244 189.262983"></polygon>
                <polygon id="Polygon-Copy-14" fill="#FFDA94" transform="translate(208.634064, 36.829680) scale(-1, 1) translate(-208.634064, -36.829680) " points="208.634064 32.3777403 213.060567 35.4539547 211.369793 40.4313741 205.898335 40.4313741 204.207562 35.4539547"></polygon>
                <polygon id="Rectangle-Copy-11" fill="#D8D8D8" transform="translate(151.163575, 220.978078) scale(-1, 1) rotate(45.000000) translate(-151.163575, -220.978078) " points="146.913997 216.93086 155.411317 216.932609 155.413153 225.025295 146.915833 225.023546"></polygon>
                <polygon id="Rectangle-Copy-40" fill="#FFDA94" transform="translate(211.669477, 175.244519) scale(-1, 1) rotate(45.000000) translate(-211.669477, -175.244519) " points="207.62226 171.197302 215.714945 171.199051 215.716695 179.291737 207.624009 179.289988"></polygon>
                <polygon id="Rectangle-Copy-12" fill="#F6D644" transform="translate(113.726813, 221.820496) scale(-1, 1) rotate(45.000000) translate(-113.726813, -221.820496) " points="109.274874 217.773278 118.176828 217.775028 118.178752 225.867714 109.276798 225.865964"></polygon>
                <polygon id="Rectangle-Copy-13" fill="#F6D644" transform="translate(175.042159, 34.434324) scale(-1, 1) rotate(45.000000) translate(-175.042159, -34.434324) " points="171.197302 30.7918282 178.885353 30.7934026 178.887015 38.0768197 171.198964 38.0752453"></polygon>
                <polygon id="Rectangle-Copy-14" fill="#F6D644" transform="translate(180.708263, 19.054897) scale(-1, 1) rotate(45.000000) translate(-180.708263, -19.054897) " points="176.863406 15.4124015 184.551458 15.413976 184.55312 22.6973931 176.865068 22.6958186"></polygon>
                <polygon id="Rectangle-Copy-15" fill="#FEB534" transform="translate(191.433390, 199.358439) scale(-1, 1) rotate(45.000000) translate(-191.433390, -199.358439) " points="186.98145 195.10886 195.883405 195.110697 195.885329 203.608017 186.983375 203.60618"></polygon>
                <polygon id="Rectangle-Copy-16" fill="#F6D644" transform="translate(191.231029, 39.695707) scale(-1, 1) rotate(45.000000) translate(-191.231029, -39.695707) " points="187.386172 36.053211 195.074223 36.0547854 195.075885 43.3382025 187.387834 43.3366281"></polygon>
                <polygon id="Rectangle-Copy-37" fill="#F6D644" transform="translate(198.751356, 63.946037) scale(-1, 1) rotate(45.000000) translate(-198.751356, -63.946037) " points="194.906499 60.3035413 202.594551 60.3051158 202.596213 67.5885329 194.908161 67.5869584"></polygon>
                <polygon id="Rectangle-Copy-21" fill="#FFDA94" transform="translate(106.239460, 18.212479) scale(-1, 1) rotate(45.000000) translate(-106.239460, -18.212479) " points="102.394604 14.5699831 110.082655 14.5715576 110.084317 21.8549747 102.396266 21.8534003"></polygon>
                <polygon id="Rectangle-Copy-28" fill="#D8D8D8" transform="translate(9.915683, 100.775717) scale(-1, 1) rotate(45.000000) translate(-9.915683, -100.775717) " points="6.07082631 97.1332209 13.7588777 97.1347954 13.7605396 104.418212 6.07248823 104.416638"></polygon>
                <ellipse id="Oval-Copy-10" fill="#FFDA94" transform="translate(6.677909, 112.107926) scale(-1, 1) translate(-6.677909, -112.107926) " cx="6.67790894" cy="112.107926" rx="4.65430017" ry="4.45193929"></ellipse>
                <ellipse id="Oval-Copy-11" fill="#D8D8D8" transform="translate(192.040472, 23.911558) scale(-1, 1) translate(-192.040472, -23.911558) " cx="192.040472" cy="23.9115584" rx="2.6306914" ry="2.83305228"></ellipse>
                <ellipse id="Oval-Copy-20" fill="#D8D8D8" transform="translate(100.573356, 6.880270) scale(-1, 1) translate(-100.573356, -6.880270) " cx="100.573356" cy="6.88026981" rx="2.6306914" ry="2.83305228"></ellipse>
                <ellipse id="Oval-Copy-41" fill="#D8D8D8" transform="translate(56.053963, 177.268128) scale(-1, 1) translate(-56.053963, -177.268128) " cx="56.0539629" cy="177.268128" rx="1.41652614" ry="1.61888702"></ellipse>
                <ellipse id="Oval-Copy-49" fill="#D8D8D8" transform="translate(81.551433, 187.790894) scale(-1, 1) translate(-81.551433, -187.790894) " cx="81.5514334" cy="187.790894" rx="1.41652614" ry="1.61888702"></ellipse>
                <ellipse id="Oval-Copy-50" fill="#D8D8D8" transform="translate(115.952782, 248.094435) scale(-1, 1) translate(-115.952782, -248.094435) " cx="115.952782" cy="248.094435" rx="1.41652614" ry="1.61888702"></ellipse>
                <ellipse id="Oval-Copy-23" fill="#D8D8D8" transform="translate(13.962901, 118.178752) scale(-1, 1) translate(-13.962901, -118.178752) " cx="13.9629005" cy="118.178752" rx="1.41652614" ry="1.61888702"></ellipse>
                <ellipse id="Oval-Copy-36" fill="#D8D8D8" transform="translate(25.699831, 57.875211) scale(-1, 1) translate(-25.699831, -57.875211) " cx="25.6998314" cy="57.8752108" rx="1.41652614" ry="1.61888702"></ellipse>
                <ellipse id="Oval-Copy-21" fill="#D8D8D8" transform="translate(200.337268, 221.787521) scale(-1, 1) translate(-200.337268, -221.787521) " cx="200.337268" cy="221.787521" rx="2.83305228" ry="3.23777403"></ellipse>
                <ellipse id="Oval-Copy-53" fill="#D8D8D8" transform="translate(214.502530, 165.935919) scale(-1, 1) translate(-214.502530, -165.935919) " cx="214.50253" cy="165.935919" rx="2.83305228" ry="3.23777403"></ellipse>
                <ellipse id="Oval-Copy-42" fill="#D8D8D8" transform="translate(93.895447, 201.146712) scale(-1, 1) translate(-93.895447, -201.146712) " cx="93.8954469" cy="201.146712" rx="2.83305228" ry="3.23777403"></ellipse>
                <ellipse id="Oval-Copy-12" fill="#FFDA94" transform="translate(34.198988, 199.932546) scale(-1, 1) translate(-34.198988, -199.932546) " cx="34.1989882" cy="199.932546" rx="4.65430017" ry="4.45193929"></ellipse>
                <ellipse id="Oval-Copy-31" fill="#F6D644" transform="translate(220.775717, 55.042159) scale(-1, 1) translate(-220.775717, -55.042159) " cx="220.775717" cy="55.0421585" rx="5.46374368" ry="5.2613828"></ellipse>
                <ellipse id="Oval-Copy-14" fill="#FFDA94" transform="translate(189.207420, 55.075133) scale(-1, 1) translate(-189.207420, -55.075133) " cx="189.20742" cy="55.0751334" rx="4.65430017" ry="4.45193929"></ellipse>
                <ellipse id="Oval-Copy-15" fill="#D8D8D8" transform="translate(179.291737, 208.667039) scale(-1, 1) translate(-179.291737, -208.667039) " cx="179.291737" cy="208.667039" rx="5.2613828" ry="5.05902192"></ellipse>
                <ellipse id="Oval-Copy-16" fill="#D8D8D8" transform="translate(153.591906, 50.590219) scale(-1, 1) translate(-153.591906, -50.590219) " cx="153.591906" cy="50.5902192" rx="3.03541315" ry="2.83305228"></ellipse>
                <ellipse id="Oval-Copy-38" fill="#D8D8D8" transform="translate(62.934233, 21.854975) scale(-1, 1) translate(-62.934233, -21.854975) " cx="62.9342327" cy="21.8549747" rx="3.03541315" ry="2.83305228"></ellipse>
                <ellipse id="Oval-Copy-17" fill="#FD5F53" transform="translate(25.295110, 172.816189) scale(-1, 1) translate(-25.295110, -172.816189) " cx="25.2951096" cy="172.816189" rx="5.86846543" ry="5.66610455"></ellipse>
                <ellipse id="Oval-Copy-39" fill="#FFDA94" transform="translate(67.790894, 193.861720) scale(-1, 1) translate(-67.790894, -193.861720) " cx="67.7908938" cy="193.86172" rx="9.51096121" ry="9.30860034"></ellipse>
                <ellipse id="Oval-Copy-34" fill="#D8D8D8" transform="translate(29.342327, 77.301855) scale(-1, 1) translate(-29.342327, -77.301855) " cx="29.3423272" cy="77.301855" rx="4.24957841" ry="4.04721754"></ellipse>
                <rect id="Rectangle-Copy-17" fill="#D8D8D8" transform="translate(168.161889, 22.292671) scale(-1, 1) translate(-168.161889, -22.292671) " x="165.531197" y="19.4596191" width="5.2613828" height="5.66610455"></rect>
                <rect id="Rectangle-Copy-18" fill="#D8D8D8" transform="translate(168.161889, 43.709949) scale(-1, 1) translate(-168.161889, -43.709949) " x="166.340641" y="41.6863406" width="3.64249578" height="4.04721754"></rect>
                <rect id="Rectangle-Copy-33" fill="#D8D8D8" transform="translate(61.720067, 44.519393) scale(-1, 1) translate(-61.720067, -44.519393) " x="59.8988196" y="42.4957841" width="3.64249578" height="4.04721754"></rect>
                <rect id="Rectangle-Copy-32" fill="#D8D8D8" transform="translate(69.409781, 17.403035) scale(-1, 1) translate(-69.409781, -17.403035) " x="67.5885329" y="15.3794266" width="3.64249578" height="4.04721754"></rect>
                <ellipse id="Oval-Copy-18" fill="#FD5F53" transform="translate(203.372681, 186.374368) scale(-1, 1) translate(-203.372681, -186.374368) " cx="203.372681" cy="186.374368" rx="5.46374368" ry="5.05902192"></ellipse>
                <ellipse id="Oval-Copy-52" fill="#D8D8D8" transform="translate(229.679595, 190.623946) scale(-1, 1) translate(-229.679595, -190.623946) " cx="229.679595" cy="190.623946" rx="4.65430017" ry="4.45193929"></ellipse>
                <polygon id="Triangle-Copy-8" fill="#F6D644" transform="translate(179.089376, 45.361811) scale(-1, 1) translate(-179.089376, -45.361811) " points="179.089376 41.7193155 183.743676 49.0043071 174.435076 49.0043071"></polygon>
                <polygon id="Triangle-Copy-30" fill="#F6D644" transform="translate(62.934233, 53.423272) scale(-1, 1) translate(-62.934233, -53.423272) " points="62.9342327 49.7807757 67.5885329 57.0657673 58.2799325 57.0657673"></polygon>
                <polygon id="Triangle-Copy-9" fill="#D8D8D8" transform="translate(185.564924, 27.958776) scale(-1, 1) translate(-185.564924, -27.958776) " points="185.564924 24.3162801 190.219224 31.6012717 180.910624 31.6012717"></polygon>
                <polygon id="Triangle-Copy-18" fill="#D8D8D8" transform="translate(163.305228, 34.434324) scale(-1, 1) translate(-163.305228, -34.434324) " points="163.305228 30.7918282 167.959528 38.0768197 158.650927 38.0768197"></polygon>
                <polygon id="Triangle-Copy-11" fill="#FD5F53" transform="translate(198.313659, 209.476482) scale(-1, 1) translate(-198.313659, -209.476482) " points="198.313659 205.226904 203.575042 213.726061 193.052277 213.726061"></polygon>
                <polygon id="Triangle-Copy-17" fill="#D8D8D8" transform="translate(209.848229, 75.682968) scale(-1, 1) translate(-209.848229, -75.682968) " points="209.848229 73.2546374 212.883642 78.1112985 206.812816 78.1112985"></polygon>
                <polygon id="Triangle-Copy-46" fill="#D8D8D8" transform="translate(130.118044, 2.428331) scale(-1, 1) translate(-130.118044, -2.428331) " points="130.118044 0 133.153457 4.85666105 127.082631 4.85666105"></polygon>
                <polygon id="Triangle-Copy-31" fill="#D8D8D8" transform="translate(32.580101, 48.161889) scale(-1, 1) translate(-32.580101, -48.161889) " points="32.5801012 45.7335582 35.6155143 50.5902192 29.544688 50.5902192"></polygon>
                <polygon id="Triangle-Copy-42" fill="#D8D8D8" transform="translate(72.242833, 49.376054) scale(-1, 1) translate(-72.242833, -49.376054) " points="72.2428331 46.9477234 75.2782462 51.8043845 69.2074199 51.8043845"></polygon>
                <polygon id="Triangle-Copy-12" fill="#D8D8D8" points="173.986333 8.93685347 169.578415 13.6377526 175.649241 15.4124015"></polygon>
                <polygon id="Triangle-Copy-36" fill="#D8D8D8" transform="translate(80.741990, 216.526138) scale(-1, 1) translate(-80.741990, -216.526138) " points="80.7419899 214.50253 83.3726813 218.549747 78.1112985 218.549747"></polygon>
                <polygon id="Triangle-Copy-33" fill="#F6D644" transform="translate(47.150084, 180.910624) scale(-1, -1) translate(-47.150084, -180.910624) " points="47.1500843 178.887015 49.7807757 182.934233 44.5193929 182.934233"></polygon>
                <polygon id="Triangle-Copy-35" fill="#D8D8D8" transform="translate(69.409781, 208.836425) scale(-1, -1) translate(-69.409781, -208.836425) " points="69.4097808 206.812816 72.0404722 210.860034 66.7790894 210.860034"></polygon>
                <polygon id="Triangle-Copy-44" fill="#D8D8D8" transform="translate(226.846543, 199.527825) scale(-1, -1) translate(-226.846543, -199.527825) " points="226.846543 197.504216 229.477234 201.551433 224.215852 201.551433"></polygon>
                <polygon id="Triangle-Copy-45" fill="#FFDA94" transform="translate(225.227656, 169.983137) scale(-1, -1) translate(-225.227656, -169.983137) " points="225.227656 166.340641 229.881956 173.625632 220.573356 173.625632"></polygon>
                <polygon id="Triangle-Copy-14" fill="#D8D8D8" transform="translate(226.846543, 62.360125) scale(-1, 1) translate(-226.846543, -62.360125) " points="226.846543 60.741238 229.072513 63.979012 224.620573 63.979012"></polygon>
                <polygon id="Triangle-Copy-15" fill="#D8D8D8" transform="translate(163.709949, 238.616449) scale(-1, 1) translate(-163.709949, -238.616449) " points="163.709949 233.152705 170.387858 244.080192 157.03204 244.080192"></polygon>
                <polygon id="Polygon-Copy-15" fill="#FEB534" transform="translate(138.617201, 29.172941) scale(-1, 1) translate(-138.617201, -29.172941) " points="138.617201 23.9115584 142.998442 26.5422498 142.998442 31.8036326 138.617201 34.434324 134.235959 31.8036326 134.235959 26.5422498"></polygon>
                <polygon id="Polygon-Copy-38" fill="#FFDA94" transform="translate(42.698145, 76.897133) scale(-1, 1) translate(-42.698145, -76.897133) " points="42.698145 71.6357504 47.0793865 74.2664418 47.0793865 79.5278246 42.698145 82.158516 38.3169035 79.5278246 38.3169035 74.2664418"></polygon>
                <polygon id="Polygon-Copy-16" fill="#FD5F53" transform="translate(188.195616, 221.820496) scale(-1, 1) translate(-188.195616, -221.820496) " points="188.195616 215.74967 193.102606 218.785083 193.102606 224.855909 188.195616 227.891322 183.288625 224.855909 183.288625 218.785083"></polygon>
                <polygon id="Polygon-Copy-17" fill="#F6D644" transform="translate(217.133221, 68.430951) scale(-1, 1) translate(-217.133221, -68.430951) " points="217.133221 61.5506815 222.91646 64.9908164 222.91646 71.8710862 217.133221 75.3112211 211.349982 71.8710862 211.349982 64.9908164"></polygon>
                <polygon id="Polygon-Copy-18" fill="#FFDA94" transform="translate(210.860034, 211.062395) scale(-1, 1) translate(-210.860034, -211.062395) " points="210.860034 206.408094 215.066026 208.735245 215.066026 213.389545 210.860034 215.716695 206.654042 213.389545 206.654042 208.735245"></polygon>
                <polygon id="Polygon-Copy-59" fill="#D8D8D8" transform="translate(209.038786, 59.898820) scale(-1, 1) translate(-209.038786, -59.898820) " points="209.038786 57.470489 211.317031 58.6846543 211.317031 61.1129848 209.038786 62.3271501 206.76054 61.1129848 206.76054 58.6846543"></polygon>
                <polygon id="Polygon-Copy-19" fill="#FD5F53" transform="translate(166.138280, 217.773278) scale(-1, 1) translate(-166.138280, -217.773278) " points="166.13828 210.083565 172.622517 213.928422 172.622517 221.618135 166.13828 225.462992 159.654043 221.618135 159.654043 213.928422"></polygon>
                <polygon id="Polygon-Copy-21" fill="#D8D8D8" transform="translate(130.927487, 59.494098) scale(-1, 1) translate(-130.927487, -59.494098) " points="130.927487 55.4468803 134.60773 57.470489 134.60773 61.5177066 130.927487 63.5413153 127.247244 61.5177066 127.247244 57.470489"></polygon>
                <polygon id="Polygon-Copy-22" fill="#FEB534" transform="translate(179.089376, 232.310287) scale(-1, 1) translate(-179.089376, -232.310287) " points="179.089376 225.834739 184.872615 229.072513 184.872615 235.548061 179.089376 238.785835 173.306137 235.548061 173.306137 229.072513"></polygon>
                <polygon id="Polygon-Copy-24" fill="#FFDA94" transform="translate(234.131535, 178.077572) scale(-1, 1) translate(-234.131535, -178.077572) " points="234.131535 172.411467 239.213775 175.244519 239.213775 180.910624 234.131535 183.743676 229.049294 180.910624 229.049294 175.244519"></polygon>
                <polygon id="Polygon-Copy-50" fill="#F6D644" transform="translate(82.765599, 235.548061) scale(-1, 1) translate(-82.765599, -235.548061) " points="82.7655987 229.881956 87.8478388 232.715008 87.8478388 238.381113 82.7655987 241.214165 77.6833585 238.381113 77.6833585 232.715008"></polygon>
                <polygon id="Polygon-Copy-5" fill="#F6D644" points="92.8836425 8.90387858 99.2347113 13.6580281 96.8088189 21.3504036 88.9584661 21.3504036 86.5325737 13.6580281"></polygon>
                <polygon id="Polygon-Copy-2" fill="#D8D8D8" points="37.841484 179.291737 42.2679865 182.367951 40.577213 187.345371 35.105755 187.345371 33.4149815 182.367951"></polygon>
                <polygon id="Polygon-Copy-45" fill="#F6D644" points="51.1973019 215.311973 55.6238044 218.388187 53.9330309 223.365607 48.4615729 223.365607 46.7707994 218.388187"></polygon>
                <polygon id="Polygon-Copy-46" fill="#FD5F53" points="101.787521 214.097808 106.214024 217.174022 104.52325 222.151442 99.0517921 222.151442 97.3610186 217.174022"></polygon>
                <polygon id="Polygon-Copy-6" fill="#D8D8D8" points="102.192243 24.688027 106.618745 27.7642414 104.927972 32.7416608 99.4565138 32.7416608 97.7657403 27.7642414"></polygon>
                <polygon id="Polygon-Copy-39" fill="#FFDA94" points="13.5581788 84.1821248 17.9846813 87.2583392 16.2939078 92.2357586 10.8224498 92.2357586 9.13167625 87.2583392"></polygon>
                <polygon id="Rectangle" fill="#FD5F53" transform="translate(134.367622, 223.204047) rotate(45.000000) translate(-134.367622, -223.204047) " points="129.915683 218.954469 138.817637 218.956306 138.819562 227.453626 129.917607 227.451789"></polygon>
                <polygon id="Rectangle-Copy-3" fill="#FEB534" transform="translate(161.686341, 11.769906) rotate(45.000000) translate(-161.686341, -11.769906) " points="157.841484 8.12740996 165.529535 8.12898442 165.531197 15.4124015 157.843146 15.4108271"></polygon>
                <polygon id="Rectangle-Copy-5" fill="#FD5F53" transform="translate(25.699831, 186.981450) rotate(45.000000) translate(-25.699831, -186.981450) " points="21.8549747 183.338954 29.5430261 183.340529 29.544688 190.623946 21.8566366 190.622372"></polygon>
                <polygon id="Rectangle-Copy" fill="#FFDA94" transform="translate(125.666105, 34.029602) rotate(45.000000) translate(-125.666105, -34.029602) " points="121.821248 30.3871064 129.509299 30.3886809 129.510961 37.672098 121.82291 37.6705235"></polygon>
                <polygon id="Rectangle-Copy-29" fill="#FFDA94" transform="translate(35.413153, 90.657673) rotate(45.000000) translate(-35.413153, -90.657673) " points="31.5682968 87.0151771 39.2563482 87.0167515 39.2580101 94.3001686 31.5699587 94.2985942"></polygon>
                <polygon id="Rectangle-Copy-6" fill="#FFDA94" transform="translate(120.000000, 18.650176) rotate(45.000000) translate(-120.000000, -18.650176) " points="116.155143 15.0076798 123.843195 15.0092542 123.844857 22.2926713 116.156805 22.2910969"></polygon>
                <polygon id="Rectangle-Copy-30" fill="#FEB534" transform="translate(52.006745, 68.802698) rotate(45.000000) translate(-52.006745, -68.802698) " points="48.1618887 65.1602024 55.8499401 65.1617768 55.851602 72.4451939 48.1635506 72.4436195"></polygon>
                <polygon id="Rectangle-Copy-2" fill="#FFDA94" transform="translate(22.057336, 152.984823) rotate(45.000000) translate(-22.057336, -152.984823) " points="18.2124789 149.342327 25.9005303 149.343902 25.9021922 156.627319 18.2141408 156.625744"></polygon>
                <polygon id="Rectangle-Copy-35" fill="#FFDA94" transform="translate(58.077572, 208.026981) rotate(45.000000) translate(-58.077572, -208.026981) " points="54.232715 204.384486 61.9207664 204.38606 61.9224283 211.669477 54.2343769 211.667903"></polygon>
                <polygon id="Rectangle-Copy-34" fill="#00BFBA" transform="translate(71.635750, 223.406408) rotate(45.000000) translate(-71.635750, -223.406408) " points="64.7554806 216.93086 78.5130463 216.933659 78.5160202 229.881956 64.7584546 229.879157"></polygon>
                <polygon id="Rectangle-Copy-7" fill="#FFDA94" transform="translate(109.477234, 39.695707) rotate(45.000000) translate(-109.477234, -39.695707) " points="105.632378 36.053211 113.320429 36.0547854 113.322091 43.3382025 105.63404 43.3366281"></polygon>
                <polygon id="Rectangle-Copy-31" fill="#FEB534" transform="translate(22.057336, 67.588533) rotate(45.000000) translate(-22.057336, -67.588533) " points="18.2124789 63.9460371 25.9005303 63.9476116 25.9021922 71.2310287 18.2141408 71.2294542"></polygon>
                <ellipse id="Oval" fill="#D8D8D8" cx="133.355818" cy="43.7429243" rx="4.65430017" ry="4.45193929"></ellipse>
                <ellipse id="Oval-Copy-35" fill="#FFDA94" cx="22.8667791" cy="95.1096121" rx="4.65430017" ry="4.45193929"></ellipse>
                <ellipse id="Oval-Copy-8" fill="#D8D8D8" cx="124.047218" cy="8.90387858" rx="2.6306914" ry="2.83305228"></ellipse>
                <ellipse id="Oval-Copy-4" fill="#D8D8D8" cx="204.182125" cy="72.0734471" rx="3.03541315" ry="2.83305228"></ellipse>
                <ellipse id="Oval-Copy-9" fill="#D8D8D8" cx="32.9848229" cy="134.772344" rx="2.6306914" ry="2.83305228"></ellipse>
                <ellipse id="Oval-Copy-43" fill="#D8D8D8" cx="59.6964587" cy="229.477234" rx="2.6306914" ry="2.83305228"></ellipse>
                <ellipse id="Oval-Copy-40" fill="#D8D8D8" cx="40.2698145" cy="211.669477" rx="2.6306914" ry="2.83305228"></ellipse>
                <ellipse id="Oval-Copy-26" fill="#D8D8D8" cx="13.5581788" cy="174.030354" rx="2.6306914" ry="2.83305228"></ellipse>
                <ellipse id="Oval-Copy-2" fill="#FFDA94" cx="112.310287" cy="6.47554806" rx="4.65430017" ry="4.45193929"></ellipse>
                <ellipse id="Oval-Copy-37" fill="#FFDA94" cx="80.3372681" cy="16.5935919" rx="4.65430017" ry="4.45193929"></ellipse>
                <ellipse id="Oval-Copy-5" fill="#D8D8D8" cx="32.1753794" cy="160.674536" rx="4.65430017" ry="4.45193929"></ellipse>
                <ellipse id="Oval-Copy-3" fill="#FFDA94" cx="133.76054" cy="15.4124015" rx="5.86846543" ry="5.66610455"></ellipse>
                <ellipse id="Oval-Copy-6" fill="#FFDA94" cx="155.210793" cy="26.7446106" rx="5.86846543" ry="5.66610455"></ellipse>
                <rect id="Rectangle" fill="#FFDA94" x="137.200675" y="3.23777403" width="5.2613828" height="5.66610455"></rect>
                <rect id="Rectangle-Copy-19" fill="#D8D8D8" x="202.360877" y="197.099494" width="5.66610455" height="6.47554806"></rect>
                <rect id="Rectangle-Copy-36" fill="#D8D8D8" x="91.4671164" y="240" width="5.66610455" height="6.47554806"></rect>
                <rect id="Rectangle-Copy-20" fill="#F6D644" x="196.290051" y="27.9587759" width="5.2613828" height="5.66610455"></rect>
                <rect id="Rectangle-Copy-38" fill="#D8D8D8" x="213.5237" y="42.0910624" width="5.2613828" height="5.66610455"></rect>
                <rect id="Rectangle-Copy-8" fill="#FFDA94" x="118.583474" y="50.6231941" width="5.2613828" height="5.66610455"></rect>
                <ellipse id="Oval-Copy" fill="#FEB534" cx="10.3204047" cy="151.770658" rx="4.65430017" ry="4.45193929"></ellipse>
                <ellipse id="Oval-Copy-7" fill="#FD5F53" cx="122.630691" cy="230.926735" rx="5.2613828" ry="5.05902192"></ellipse>
                <polygon id="Triangle" fill="#D8D8D8" points="120.404722 39.290985 125.059022 46.5759766 115.750422 46.5759766"></polygon>
                <polygon id="Triangle-Copy-26" fill="#D8D8D8" points="15.9865093 72.0404722 20.6408094 79.3254637 11.3322091 79.3254637"></polygon>
                <polygon id="Triangle-Copy-28" fill="#F2CF91" points="38.2462057 50.994941 47.7571669 65.5649241 28.7352445 65.5649241"></polygon>
                <polygon id="Triangle-Copy-4" fill="#D8D8D8" points="114.738617 23.9115584 119.392917 31.1965499 110.084317 31.1965499"></polygon>
                <polygon id="Triangle-Copy-29" fill="#D8D8D8" points="91.2647555 24.2833052 95.9190556 31.5682968 86.6104553 31.5682968"></polygon>
                <polygon id="Triangle-Copy-27" fill="#D8D8D8" transform="translate(33.389545, 104.418212) scale(1, -1) translate(-33.389545, -104.418212) " points="33.3895447 100.775717 38.0438449 108.060708 28.7352445 108.060708"></polygon>
                <polygon id="Triangle-Copy-41" fill="#D8D8D8" transform="translate(88.431703, 182.124789) scale(1, -1) translate(-88.431703, -182.124789) " points="88.4317032 179.696459 91.4671164 184.55312 85.3962901 184.55312"></polygon>
                <polygon id="Triangle-Copy" fill="#FD5F53" points="132.748735 235.176314 141.247892 248.936853 124.249578 248.936853"></polygon>
                <polygon id="Triangle-Copy-5" fill="#FD5F53" points="15.5817875 157.841484 20.2360877 165.126476 10.9274874 165.126476"></polygon>
                <polygon id="Triangle-Copy-3" fill="#FEB534" points="19.2242833 123.035413 23.8785835 130.320405 14.5699831 130.320405"></polygon>
                <polygon id="Triangle-Copy-34" fill="#D8D8D8" points="43.5075885 189.005059 48.1618887 196.290051 38.8532884 196.290051"></polygon>
                <polygon id="Triangle-Copy-6" fill="#FFDA94" points="10.3204047 135.177066 14.9747049 142.462057 5.66610455 142.462057"></polygon>
                <polygon id="Triangle-Copy-2" fill="#FFDA94" points="34.1989882 144.080944 38.8532884 151.365936 29.544688 151.365936"></polygon>
                <polygon id="Triangle-Copy-32" fill="#FFDA94" points="84.3844857 195.480607 93.8954469 210.05059 74.8735245 210.05059"></polygon>
                <polygon id="Triangle-Copy-7" fill="#D8D8D8" points="112.917369 235.581036 118.178752 244.080192 107.655987 244.080192"></polygon>
                <polygon id="Triangle-Copy-16" fill="#D8D8D8" points="24.8903879 83.777403 27.1163575 87.0151771 22.6644182 87.0151771"></polygon>
                <polygon id="Polygon" fill="#FFDA94" points="147.925801 8.12740996 152.307043 10.7581014 152.307043 16.0194842 147.925801 18.6501756 143.54456 16.0194842 143.54456 10.7581014"></polygon>
                <polygon id="Polygon-Copy-29" fill="#D8D8D8" points="158.853288 41.2816189 160.430535 42.2934233 160.430535 44.317032 158.853288 45.3288364 157.276041 44.317032 157.276041 42.2934233"></polygon>
                <polygon id="Polygon-Copy-43" fill="#D8D8D8" points="88.836425 35.2107926 90.4136719 36.222597 90.4136719 38.2462057 88.836425 39.2580101 87.259178 38.2462057 87.259178 36.222597"></polygon>
                <polygon id="Polygon-Copy-58" fill="#FFDA94" points="41.079258 34.8510399 45.4604995 37.6616076 45.4604995 43.2827431 41.079258 46.0933108 36.6980165 43.2827431 36.6980165 37.6616076"></polygon>
                <polygon id="Polygon-Copy-7" fill="#FFDA94" points="89.8482293 215.74967 94.7552198 218.785083 94.7552198 224.855909 89.8482293 227.891322 84.9412389 224.855909 84.9412389 218.785083"></polygon>
                <polygon id="Polygon-Copy" fill="#FFDA94" points="22.8667791 101.989882 28.6500179 105.430017 28.6500179 112.310287 22.8667791 115.750422 17.0835403 112.310287 17.0835403 105.430017"></polygon>
                <polygon id="Polygon-Copy-23" fill="#FFDA94" points="148.330523 33.2201587 154.113762 36.6602936 154.113762 43.5405634 148.330523 46.9806983 142.547284 43.5405634 142.547284 36.6602936"></polygon>
                <polygon id="Polygon-Copy-41" fill="#FFDA94" points="73.4569983 23.06914 82.7452303 28.5328836 82.7452303 39.460371 73.4569983 44.9241147 64.1687663 39.460371 64.1687663 28.5328836"></polygon>
                <polygon id="Polygon-Copy-40" fill="#F6D644" points="50.7925801 44.9241147 56.5758189 48.3642496 56.5758189 55.2445194 50.7925801 58.6846543 45.0093413 55.2445194 45.0093413 48.3642496"></polygon>
                <polygon id="Polygon-Copy-8" fill="#D8D8D8" points="23.6762226 134.367622 27.3564655 136.391231 27.3564655 140.438449 23.6762226 142.462057 19.9959797 140.438449 19.9959797 136.391231"></polygon>
                <polygon id="Polygon-Copy-48" fill="#F6D644" points="47.9595278 200.337268 51.6397707 202.360877 51.6397707 206.408094 47.9595278 208.431703 44.279285 206.408094 44.279285 202.360877"></polygon>
                <polygon id="Polygon-Copy-4" fill="#FD5F53" points="41.8887015 166.340641 45.9194437 168.768971 45.9194437 173.625632 41.8887015 176.053963 37.8579593 173.625632 37.8579593 168.768971"></polygon>
                <polygon id="Polygon-Copy-44" fill="#FFDA94" points="65.3625632 172.816189 69.3933054 175.244519 69.3933054 180.10118 65.3625632 182.529511 61.3318211 180.10118 61.3318211 175.244519"></polygon>
                <polygon id="Polygon-Copy-9" fill="#FD5F53" points="147.72344 228.296044 154.382927 232.242081 154.382927 240.134155 147.72344 244.080192 141.063953 240.134155 141.063953 232.242081"></polygon>
                <polygon id="Polygon-Copy-3" fill="#FFDA94" points="5.86846543 120.607083 10.9507056 123.440135 10.9507056 129.106239 5.86846543 131.939292 0.786225286 129.106239 0.786225286 123.440135"></polygon>
                <polygon id="Polygon-Copy-10" fill="#FD5F53" points="101.787521 225.867714 107.57076 229.105488 107.57076 235.581036 101.787521 238.81881 96.0042823 235.581036 96.0042823 229.105488"></polygon>
            </g>
        </g>
    </g>
</svg>